<svg id="Calque_1" data-name="Calque 1" xmlns="http://www.w3.org/2000/svg" viewBox="0 0 1920 1080"><defs><style>.cls-1{fill:#fff;}.cls-2{opacity:0.09;}.cls-3{fill:none;stroke:#000;stroke-miterlimit:10;stroke-width:1px;}</style></defs><rect class="cls-1" width="1920" height="1080"/><g class="cls-2"><path class="cls-3" d="M1920,396.71q-2.77,6.17-5.52,12.45-4.56,10.39-9.07,21.07t-8.94,21.35q-4.41,10.69-8.84,21.56t-8.78,21.68q-4.36,10.85-8.77,21.77t-8.82,21.8q-4.42,10.9-8.9,21.82t-9.07,21.86q-4.56,10.9-9.22,21.74t-9.47,21.67q-4.83,10.86-9.79,21.59t-10.17,21.5C1751.19,779,1685.25,872.65,1586.38,898c-80.79,20.67-153.49-12-230.52-72.37q-12.48-9.78-25.14-20.5t-25.58-22.29q-12.89-11.53-26-23.82t-26.61-25.15q-13.35-12.78-27.07-26.11t-27.87-27.11q-14.1-13.73-28.65-27.8t-29.48-28.26Q1124.49,610.35,1109,596t-31.38-28.64q-15.92-14.28-32.45-28.53t-33.55-28.24q-17-14-34.75-27.77t-36-27.1q-18.21-13.34-37.17-26.25t-38.38-25.16Q846,392.09,825.85,380.38q-19.92-11.53-40.66-22.49-20.4-10.78-41.62-20.91h0q-21-10-42.79-19.3-21-9-42.92-17.23-17.94-6.76-36.46-13c-216-72.85-430.86-70.08-621.39-36"/><path class="cls-3" d="M0,270.72C182.41,243,388.16,244.43,596.09,314.18q17.34,5.81,34.19,12,21.12,7.79,41.48,16.18,21.15,8.7,41.51,18,20.67,9.42,40.54,19.4,20.3,10.15,39.8,20.83,19.85,10.85,38.92,22.13,19.38,11.46,38,23.3,18.87,12,37,24.31,18.36,12.45,36,25.15,17.82,12.81,35,25.8,17.29,13.08,33.92,26.27t32.91,26.55q16.28,13.33,32,26.62t31,26.5q15.35,13.2,30.17,26.17t29.37,25.66q14.51,12.66,28.6,24.89t27.74,23.77q13.8,11.7,27.3,22.75t26.77,21.37q13.23,10.29,26.28,19.77c17.3,12.54,34.38,23.94,51.36,33.94,65.81,38.76,130.26,56.62,200.91,39.55,95.63-23.11,160.76-105.48,214.08-203.58q5.76-10.57,11.33-21.37T1793,618.72q5.29-10.71,10.48-21.55t10.17-21.59q5-10.8,10-21.63t9.79-21.59l9.69-21.53q4.81-10.75,9.62-21.41t9.63-21.25q4.84-10.59,9.69-21t9.78-20.7q4.94-10.29,9.93-20.3t10.11-19.8q5.14-9.8,10.38-19.2,3.82-6.89,7.73-13.54"/><path class="cls-3" d="M1920,327.9c-1.57,1.92-3.11,3.87-4.64,5.86q-6.09,7.83-12,16.21t-11.63,17.19c-3.82,5.85-7.59,11.87-11.33,18s-7.4,12.37-11.05,18.74-7.25,12.79-10.85,19.35-7.13,13.15-10.67,19.86-7.06,13.46-10.58,20.29-7,13.69-10.52,20.61-7,13.88-10.53,20.88-7,14-10.6,21.06-7.12,14.12-10.72,21.18-7.26,14.2-11,21.28-7.41,14.2-11.18,21.26-7.65,14.21-11.56,21.24-7.94,14.19-12,21.18-8.31,14.14-12.57,21.07c-53,86.32-117.19,158.12-209.44,179.14-69.3,15.79-132.6,3.16-196.45-27.23q-13.08-6.24-26.22-13.44c-17.67-9.67-35.45-20.57-53.47-32.49q-13.65-9-27.5-18.79t-28-20.19q-14-10.3-28.32-21.19-14.46-11-29.27-22.44t-30-23.23q-15.13-11.73-30.73-23.8t-31.52-24.17q-15.9-12.11-32.34-24.35T980.17,556.7q-16.74-12-34.09-24.07-17.16-11.86-35-23.64-17.58-11.62-35.84-23.06-18-11.26-36.66-22.3-18.37-10.85-37.46-21.4-18.74-10.35-38.2-20.36-19.07-9.81-38.87-19.24-19.37-9.21-39.45-18Q664.86,376,644.37,367.8q-19.7-7.86-40.11-15.25-16.5-6-33.47-11.62C371,274.27,174.31,268.8,0,290.21"/><path class="cls-3" d="M1920,316.06q-4.71,4-9.3,8.34-6.85,6.42-13.46,13.48t-13,14.66q-6.42,7.6-12.65,15.73t-12.31,16.65q-6.08,8.55-12,17.51t-11.82,18.24q-5.85,9.29-11.63,18.85t-11.52,19.38q-5.74,9.81-11.47,19.8t-11.47,20.15q-5.77,10.15-11.58,20.4T1766,539.84q-5.94,10.41-12,20.79t-12.27,20.74q-6.26,10.44-12.69,20.74t-13.23,20.66q-6.84,10.41-13.92,20.54c-52.55,75.16-115.57,137.14-204.33,156.17-68,14.59-130.3,6.39-192.42-16.69q-13.46-5-26.92-10.92T1251,759.15c-18.43-9.16-37-19.41-55.84-30.57q-14.2-8.39-28.63-17.46-14.22-8.89-28.72-18.38Q1123.08,683.13,1108,673t-30.51-20.58q-15.37-10.41-31.18-21.18t-31.86-21.59q-16-10.81-32.61-21.81Q965.43,577,948.47,566q-16.74-10.83-34.08-21.67-17.08-10.7-34.81-21.34-17.43-10.49-35.52-20.87-17.76-10.17-36.19-20.22-18.06-9.84-36.82-19.48Q752.71,453,733.66,443.8q-18.61-9-37.92-17.67-18.84-8.49-38.37-16.67-19.18-8-39.06-15.73-19.06-7.37-38.81-14.4-16.75-6-34-11.65C353.86,304.12,166.21,294.72,0,310"/><path class="cls-3" d="M1920,314.71a227.89,227.89,0,0,0-25.9,16.94q-7.39,5.55-14.5,11.72t-14.1,13q-7,6.79-13.72,14.13t-13.36,15.17q-6.62,7.84-13.06,16.11t-12.83,16.93q-6.36,8.67-12.64,17.65t-12.53,18.3q-6.24,9.3-12.46,18.79t-12.49,19.23q-6.29,9.74-12.58,19.56T1737.06,532q-6.52,10.07-13.14,20.1t-13.39,20q-6.87,10.08-13.91,20t-14.51,19.93q-7.53,10-15.33,19.76c-51.91,64.7-113.63,117.66-198.83,134.81-66.91,13.47-128.22,9-188.84-7.69q-13.84-3.81-27.66-8.47t-27.92-10.14q-14.12-5.52-28.34-11.78c-19.14-8.41-38.44-17.77-58-27.91q-14.27-7.38-28.77-15.28-15.09-8.21-30.48-16.92t-31-17.73q-15.54-9-31.5-18.34l-32.07-18.79q-16.11-9.43-32.73-19.08-16.4-9.53-33.32-19.19-16.68-9.51-33.93-19.12-17-9.44-34.52-18.91-17.24-9.3-35.09-18.57-17.47-9.07-35.61-18.1-17.73-8.82-36.1-17.54-18-8.49-36.54-16.87-18.15-8.16-37-16.15-18.33-7.79-37.3-15.36-18.63-7.46-37.9-14.66-18.48-6.93-37.58-13.6-17.52-6.13-35.58-12C336.75,334,158.12,320.81,0,330"/><path class="cls-3" d="M1920,321.05q-4.71,1.56-9.3,3.35-8.48,3.28-16.6,7.25a242.4,242.4,0,0,0-31.65,18.55q-7.76,5.32-15.23,11.25t-14.79,12.43q-7.35,6.51-14.45,13.53T1803.82,402q-7,7.55-13.9,15.47t-13.7,16.28q-6.84,8.35-13.58,17t-13.53,17.59q-6.78,9-13.54,18.11t-13.67,18.5q-6.92,9.38-13.88,18.8-7.1,9.6-14.31,19.17t-14.59,19q-7.47,9.62-15.15,19.06t-15.86,18.94q-8.2,9.52-16.74,18.72h0c-51.12,55-111.41,99.81-193,115.19a491.88,491.88,0,0,1-185.84,0q-14.2-2.64-28.35-6.07-14.31-3.43-28.61-7.58-14.47-4.2-29-9t-29.42-10.45q-28.52-10.67-57.69-23.48-15.66-6.81-31.6-14.15-15.55-7.15-31.45-14.74-15.69-7.49-31.76-15.34-15.89-7.76-32.21-15.82L919.74,601q-16.34-8.07-33.19-16.38Q870,576.44,852.9,568.13q-16.77-8.13-34.11-16.37-17-8.09-34.56-16.21-17.18-7.95-34.93-15.92-17.35-7.77-35.33-15.56Q696.44,496.5,678.3,489q-17.68-7.33-36-14.62-17.82-7.08-36.25-14.08Q588,453.4,569.3,446.65q-17.91-6.48-36.41-12.81-18.69-6.4-38-12.66C319.67,363.83,150,347.06,0,350.39"/><path class="cls-3" d="M1920,332.93c-1.56.26-3.1.53-4.64.83q-9.27,1.73-18.12,4.12-9,2.43-17.64,5.49t-17.15,6.83a265.81,265.81,0,0,0-33.06,17.57q-8.15,5.06-16,10.65t-15.56,11.77q-7.77,6.21-15.3,12.86t-15,13.82q-7.49,7.17-14.81,14.71t-14.69,15.51q-7.36,8-14.63,16.18T1708.77,480q-7.39,8.55-14.79,17.22t-15,17.57q-7.71,9-15.55,18t-15.8,17.86q-8.11,9-16.43,17.85T1614,586.22q-8.93,8.88-18.19,17.41c-50.22,46.17-109,83.65-187,97.38-65.14,11.46-125,12.92-183.31,6.7q-14.57-1.55-29-3.73-14.62-2.19-29.19-5t-29.38-6.24q-14.7-3.39-29.47-7.35-14.4-3.85-28.92-8.2c-20.92-6.25-42.06-13.23-63.58-20.85q-15.52-5.48-31.34-11.39-15.66-5.85-31.67-12.08-15.83-6.15-32-12.64-16-6.39-32.43-13.08-16.18-6.58-32.83-13.41L822.4,580.11q-16.51-6.76-33.54-13.73Q772.2,559.57,755,552.62q-16.8-6.78-34.17-13.68-17-6.74-34.47-13.56-17.07-6.64-34.7-13.35-17.19-6.52-34.95-13.1-17.3-6.4-35.16-12.82-17.52-6.3-35.63-12.59-17.35-6-35.25-12-20.18-6.8-41.08-13.54C302.52,394,141.94,373.78,0,371.29"/><path class="cls-3" d="M1920,348.77q-8.49.39-16.64,1.2-9.79,1-19.16,2.57-9.56,1.6-18.7,3.83-9.35,2.24-18.28,5.08-9.12,2.88-17.83,6.32a294.87,294.87,0,0,0-34.61,16.36q-8.51,4.71-16.69,9.89-8.37,5.28-16.45,11t-16.16,12q-8.09,6.29-16,13t-15.85,13.81q-8,7.14-15.79,14.56t-15.82,15.18q-8,7.79-16,15.7l-16.23,16.1q-8.34,8.29-16.79,16.56t-17,16.41c-5.82,5.51-11.72,11-17.71,16.38s-12.22,10.87-18.5,16.16-12.88,10.68-19.53,15.83C1511,624.92,1453.81,656,1379.13,668.19c-64.6,10.58-124,14.35-181.57,12.41q-14.94-.5-29.75-1.51-15-1-29.86-2.55T1108,673q-15-2-30.09-4.53t-30-5.43q-15.91-3.1-32-6.7c-20.55-4.58-41.33-9.75-62.5-15.45q-15.63-4.2-31.57-8.79-15.74-4.53-31.82-9.41-15.87-4.82-32.14-9.94-16-5.06-32.4-10.39-16.11-5.25-32.68-10.76-16.21-5.4-32.91-11-16.33-5.52-33.17-11.25L693.29,557.9l-33.6-11.49q-16.63-5.68-33.79-11.53-16.73-5.7-34-11.53-16.8-5.69-34.12-11.49-17-5.69-34.57-11.49-16.82-5.56-34.16-11.22-22-7.17-44.79-14.47C285.5,423.92,133.89,400.49,0,392.5"/><path class="cls-3" d="M1920,367.44q-3.9-.18-7.73-.28-10.51-.29-20.54,0-10.32.27-20.18,1.11-10.11.83-19.77,2.23c-6.6.94-13,2.08-19.35,3.38q-9.72,2-19,4.54-9.53,2.59-18.64,5.71a328.18,328.18,0,0,0-36.1,14.77q-9,4.29-17.67,9.06-8.82,4.82-17.35,10.06-8.72,5.31-17.17,11-8.64,5.79-17.06,11.92-8.58,6.21-17,12.7t-17,13.37q-8.6,6.9-17.17,13.94t-17.42,14.36q-9,7.41-18.08,14.85t-18.26,14.69c-6.23,4.92-12.54,9.82-19,14.64h0q-9.69,7.32-19.72,14.4c-6.78,4.77-13.7,9.46-20.77,14-48.28,31.13-104,56.58-175.51,67.44-64.34,9.76-123.51,15.55-180.61,17.43q-15.33.51-30.47.63-15.3.14-30.46-.12t-30.51-.89q-15.3-.64-30.56-1.68t-30.51-2.44q-15.89-1.47-31.87-3.35-15.51-1.85-31.16-4.06C932.8,638,912,634.56,890.79,630.65q-15.62-2.89-31.54-6.14-15.69-3.19-31.73-6.75-15.78-3.48-31.91-7.32-15.83-3.74-32.07-7.82-15.9-4-32.24-8.29-16-4.2-32.43-8.7-16.05-4.39-32.56-9.06-16.12-4.56-32.73-9.38-16.19-4.7-32.86-9.65-16.25-4.83-33-9.9-16.32-4.93-33.14-10.1-16.5-5.06-33.52-10.35-16.31-5.06-33.11-10.33-24-7.51-49-15.43A2132.9,2132.9,0,0,0,0,414.18"/><path class="cls-3" d="M1920,388.05q-9.23-1-18.11-1.69-11-.84-21.49-1.19-10.82-.37-21.16-.25-10.65.12-20.82.75-10.45.61-20.44,1.74-10.29,1.14-20.12,2.78-10.11,1.67-19.77,3.83-9.93,2.21-19.41,4.88a371.83,371.83,0,0,0-38,12.93q-9.47,3.78-18.59,8-9.35,4.26-18.38,8.92h0q-9.27,4.74-18.29,9.82-9.21,5.18-18.22,10.63-9.2,5.54-18.25,11.32-9.23,5.86-18.39,11.9-9.32,6.14-18.64,12.36-9.61,6.4-19.34,12.85t-19.46,12.71q-9.9,6.39-20.08,12.66t-20.81,12.38q-10.68,6.14-21.8,12h0c-47.38,24.91-101.66,45.54-170.44,55.18-64.37,9-123.6,16.63-180.49,22q-15.69,1.47-31.16,2.72t-31,2.25q-15.54,1-31,1.73t-30.88,1.16q-15.37.44-30.77.56-15.87.13-31.78-.09-15.48-.21-31.06-.77-15.42-.54-31-1.45c-20.43-1.18-41.12-2.83-62.19-5q-15.48-1.59-31.27-3.54-15.5-1.92-31.32-4.21-15.53-2.25-31.42-4.87-15.54-2.55-31.5-5.49-15.6-2.87-31.63-6.1-15.63-3.15-31.7-6.66-15.69-3.43-31.83-7.21-15.73-3.68-31.93-7.71-15.79-3.93-32-8.2-15.84-4.15-32.13-8.64-16-4.39-32.52-9.13-15.82-4.53-32.09-9.37-26.15-7.77-53.53-16.35A2709.81,2709.81,0,0,0,0,436.44"/><path class="cls-3" d="M0,459.32c109.91,22.89,234.75,54.25,368.37,95.61q30,9.27,58.43,17.14,15.75,4.38,31.08,8.32,16,4.14,31.53,7.83,15.79,3.76,31.16,7.09,15.75,3.44,31.09,6.42,15.71,3.06,31,5.7,15.66,2.7,30.91,5,15.62,2.33,30.84,4.22,15.58,1.95,30.8,3.45,15.52,1.56,30.7,2.67,15.51,1.17,30.67,1.89,15.5.76,30.68,1.11c20.79.49,41.2.43,61.36-.08q15.42-.39,30.65-1.15,15.43-.74,30.73-1.82,15.46-1.07,30.84-2.46,15.82-1.4,31.61-3.09,15.45-1.65,30.91-3.53t31.09-4q15.58-2.07,31.3-4.31t31.54-4.58Q1093,598.42,1109,596c57-8.63,116.54-18,181.28-26.28a629.36,629.36,0,0,0,166.23-44.52q11.57-4.82,22.62-9.86t21.73-10.2Q1511.6,500,1522,494.71h0q10.38-5.23,20.54-10.49l20.55-10.57q9.93-5.11,19.84-10.09t19.61-9.62q9.67-4.63,19.49-9,9.63-4.29,19.47-8.32,9.65-3.93,19.57-7.54,9.66-3.49,19.65-6.65c12.8-4,26-7.59,39.92-10.57q10-2.15,20.38-3.87,10.08-1.68,20.63-2.92,10.21-1.21,20.92-2,10.38-.76,21.26-1.09,10.53-.3,21.54-.18,10.68.11,21.85.65,10.82.52,22.14,1.48,11,.91,22.43,2.25,11.1,1.3,22.7,3l5.52.84"/><path class="cls-3" d="M0,483c102,27.17,218,60.5,343.07,98.73q32.65,10,63.54,17.72,15.25,3.84,30.12,7.16Q452.21,610,467.28,613q15.3,3,30.2,5.46Q512.73,621,527.61,623q15.23,2.07,30.06,3.61,15.18,1.6,30,2.67,15.14,1.13,29.93,1.73,15.12.63,29.93.78,15.09.15,29.89-.16,15.08-.32,29.87-1.07c20.3-1,40.25-2.67,60-4.79q15.13-1.62,30.09-3.62,15.17-2,30.19-4.36,15.21-2.35,30.32-5,15.3-2.68,30.55-5.6,15.68-3,31.35-6.2,15.4-3.13,30.87-6.42t31.21-6.69l31.57-6.85q15.86-3.42,31.92-6.85t32.34-6.78c57.39-11.79,117.56-22.77,183-30.46a855.33,855.33,0,0,0,163.09-35.17q11.85-3.75,23.19-7.65t22.42-7.88q11.14-4,22-8c7.24-2.68,14.4-5.37,21.5-8q10.91-4.06,21.7-8.05c7-2.58,14-5.1,21-7.56s13.82-4.79,20.79-7.08,13.75-4.42,20.73-6.49q10.23-3.06,20.73-5.81,10.25-2.7,20.84-5.06c13.5-3,27.46-5.62,42.07-7.69q10.44-1.5,21.33-2.6,10.56-1.08,21.62-1.78c7.11-.45,14.37-.78,21.82-1q10.79-.29,22.08-.19,10.92.09,22.36.56,11,.45,22.61,1.28,11.17.8,22.86,2,11.29,1.11,23.11,2.59,11.41,1.42,23.35,3.2,11.54,1.71,23.56,3.77c3.25.55,6.53,1.13,9.84,1.72l4.75.86"/><path class="cls-3" d="M0,507.42c94.08,31,201.23,65.89,317.77,101q35.44,10.68,68.85,18,14.76,3.26,29.15,5.89,15,2.75,29.6,4.88,14.79,2.15,29.23,3.7,14.76,1.59,29.19,2.58,14.71,1,29.1,1.44,14.7.45,29.08.31,14.65-.12,29-.82,14.67-.67,29-1.9,14.66-1.23,29.05-3c19.68-2.37,39-5.41,58.18-9q14.73-2.74,29.28-5.9,14.79-3.18,29.45-6.72,14.85-3.58,29.6-7.47,14.94-3.91,29.83-8.08,15.06-4.22,30.12-8.62,15.47-4.51,31-9.17,15.32-4.58,30.74-9.23T948.47,566q15.75-4.68,31.7-9.3t32.23-9.11q16.26-4.49,32.8-8.76c58.12-15,119.27-27.67,185.9-34.76a1389.68,1389.68,0,0,0,161.2-26.8q12-2.68,23.52-5.41,11.65-2.75,22.91-5.47l22.64-5.51q11.25-2.75,22.31-5.39,11.41-2.72,22.72-5.29,11-2.49,22-4.8t21.94-4.31q10.84-2,21.92-3.74c7.22-1.13,14.52-2.17,22-3.1,14.26-1.8,29-3.22,44.38-4.16,7.31-.46,14.77-.8,22.42-1q11-.32,22.59-.33h0q11.14,0,22.83.33,11.23.31,23,1,11.34.62,23.24,1.56,11.46.9,23.47,2.13,11.55,1.17,23.67,2.65,11.67,1.44,23.87,3.16,11.77,1.65,24.07,3.6,11.87,1.89,24.24,4,11.94,2.07,24.4,4.42l2.5.47q10.58,2,21,4"/><path class="cls-3" d="M0,532.91c86.24,34.29,184.59,70.25,292.47,102.27A698.3,698.3,0,0,0,366.76,653q14.26,2.6,28.19,4.47,14.49,2,28.66,3.22t28.3,1.84q14.26.62,28.24.51,14.24-.06,28.17-.8,14.2-.72,28.12-2.1,14.17-1.38,28.1-3.36,14.22-2,28.2-4.62c19-3.51,37.81-7.78,56.36-12.64q14.24-3.74,28.31-7.91,14.31-4.23,28.48-8.86,14.4-4.66,28.7-9.7,14.5-5.07,28.95-10.42,14.61-5.4,29.22-11,14.81-5.67,29.64-11.49,15.21-6,30.5-12t30.46-11.91q15.43-6,31-11.89t31.69-11.7q16.06-5.79,32.4-11.31t33.17-10.73c59.16-18.3,121.65-32.83,189.84-39.34,63.21-6,114.71-12.89,160.66-19.06l23.68-3.17q11.78-1.57,23.17-3c7.81-1,15.5-2,23.12-2.89s15.33-1.8,22.92-2.62q11.87-1.28,23.65-2.34c7.66-.69,15.31-1.31,23-1.84s15.28-1,23-1.35c7.6-.36,15.28-.63,23.08-.8,15-.34,30.36-.33,46.44.11q11.52.3,23.54.9,11.57.57,23.69,1.44,11.65.84,23.87,2,11.75,1.08,24.07,2.43,11.82,1.3,24.23,2.86,11.91,1.5,24.4,3.26,12,1.68,24.58,3.62,12.08,1.86,24.72,4,12.17,2,24.88,4.24,12.23,2.14,25,4.51,12.3,2.28,25.13,4.76,10,1.93,20.32,4l4.93,1q16.3,3.24,32.37,6.38"/><path class="cls-3" d="M0,559.55c78.45,37,168.06,73.45,267.17,102.38A544,544,0,0,0,347,679q13.79,1.85,27.27,2.91,14,1.13,27.73,1.43t27.34-.14h0c9.18-.29,18.28-.85,27.29-1.63s18.22-1.85,27.21-3.13,18.2-2.81,27.19-4.55,18.16-3.75,27.14-5.94c18.44-4.48,36.61-9.81,54.6-15.82q13.71-4.57,27.31-9.66,13.79-5.15,27.47-10.73,13.88-5.65,27.67-11.69,14-6.09,27.9-12.52,14.1-6.48,28.21-13.22,14.26-6.8,28.55-13.77,14.48-7,29-14.18,14.91-7.3,29.93-14.62t30.05-14.45q15.27-7.24,30.74-14.32,15.64-7.14,31.53-14,16.07-6.93,32.42-13.47,16.51-6.6,33.37-12.7c60.56-21.88,124.76-38.44,195-44.39,63.37-5.38,115.11-9.42,161.48-11.59q12.06-.55,23.67-.95h0q11.81-.39,23.25-.59h0c7.9-.15,15.69-.22,23.42-.22s15.61.08,23.36.23c8.16.16,16.28.41,24.42.75,7.92.33,15.85.74,23.84,1.25s15.9,1.09,24,1.77c15.7,1.33,31.77,3,48.51,5.06q12,1.47,24.49,3.21,12.11,1.68,24.76,3.61c8.12,1.24,16.42,2.55,25,4q12.26,2,25.12,4.26,12.33,2.15,25.29,4.5,12.39,2.25,25.44,4.72,12.47,2.34,25.56,4.88,12.52,2.43,25.68,5,12.59,2.51,25.79,5.15,12.64,2.55,25.87,5.25l26,5.32q12.74,2.64,26,5.4l13.67,2.84q6.22,1.31,12.43,2.56,20.76,4.26,41.15,8.19"/><path class="cls-3" d="M0,587.57c70.72,38.85,151.62,75.27,241.86,101.12a432.14,432.14,0,0,0,85.35,15.64q13.29,1,26.33,1.22,13.54.19,26.82-.52t26.44-2.22q13.27-1.54,26.33-3.89,13.25-2.37,26.3-5.51,13.21-3.17,26.25-7c17.69-5.26,35.16-11.45,52.46-18.4q13.26-5.29,26.4-11.2T591,644.39q13.34-6.48,26.59-13.41,13.42-7,26.8-14.36,13.54-7.43,27.07-15.17,13.69-7.79,27.41-15.82,13.88-8.08,27.81-16.32Q740.78,561,755,552.62q14.55-8.55,29.24-17.07t29.52-16.81q15-8.43,30.31-16.62,15.48-8.26,31.21-16.19,16-8,32.27-15.56,16.51-7.64,33.4-14.65c62.3-25.84,128.59-44.7,201.33-50.11,64.12-4.77,116.47-6,163.61-4,8,.33,15.84.75,23.57,1.27h0q11.77.76,23.2,1.82h0q11.89,1.1,23.53,2.47,11.88,1.41,23.62,3.11,12.56,1.8,25.1,3.93c8.13,1.38,16.27,2.86,24.49,4.43,16.25,3.11,32.77,6.6,49.9,10.45q12.48,2.81,25.43,5.86,12.55,3,25.65,6.15c8.45,2.05,17.08,4.17,25.95,6.36l26.19,6.49,26.36,6.55q12.93,3.19,26.52,6.55,13,3.21,26.64,6.53,13,3.18,26.72,6.46,13.07,3.14,26.8,6.38,13.1,3.09,26.84,6.27,13.14,3,26.89,6.17,13.15,3,26.9,6,13.18,2.93,26.93,5.93l7,1.53q10,2.17,19.93,4.23,25.25,5.26,49.92,9.84"/><path class="cls-3" d="M0,617.19c63.09,39.86,135.34,75.46,216.56,98.25a350.48,350.48,0,0,0,90.89,13.35q12.81.16,25.4-.63c8.71-.54,17.34-1.42,25.91-2.59h0q12.84-1.77,25.49-4.43,12.81-2.68,25.43-6.23T435,707a532,532,0,0,0,50.7-20.64q12.7-5.91,25.32-12.46t25.44-13.78q12.79-7.2,25.53-14.92t25.69-16q12.95-8.25,25.89-16.85,13.1-8.67,26.21-17.61t26.55-18.22q13.44-9.29,27-18.67,13.71-9.48,27.53-19,14.16-9.71,28.48-19.31t28.84-19q14.75-9.52,29.73-18.74,15.24-9.36,30.74-18.27,15.79-9.08,31.92-17.57,16.43-8.65,33.24-16.59c64.39-30.29,133.17-51.85,208.9-56.69,65.41-4.19,118.71-2.36,166.94,4q11.91,1.56,23.43,3.5c7.78,1.3,15.44,2.71,23,4.24h0c7.9,1.59,15.71,3.3,23.49,5.13h0q11.85,2.77,23.59,5.9,12.87,3.42,25.77,7.23c16.55,4.85,33.25,10.16,50.46,15.84q12.75,4.2,25.93,8.68,12.92,4.37,26.37,9,13.07,4.45,26.74,9.11,13.21,4.49,27.1,9.13,13.34,4.46,27.37,9,13.42,4.37,27.58,8.83,13.5,4.26,27.74,8.59,13.56,4.13,27.84,8.29,13.59,4,27.9,8,13.62,3.83,27.92,7.66,13.63,3.66,27.93,7.33,13.64,3.5,27.89,7,13.63,3.35,27.88,6.71,13.64,3.19,27.84,6.4l.44.1q13.75,3.09,27.38,5.93,29.76,6.23,58.74,11.29"/><path class="cls-3" d="M0,648.68c55.52,39.77,119.18,73.75,191.26,93.51a289.63,289.63,0,0,0,96.4,10q12.33-.81,24.46-2.64,12.61-1.89,25-4.81t24.6-6.75q12.32-3.86,24.5-8.62A475.51,475.51,0,0,0,435,707q12.25-6.45,24.45-13.6t24.38-14.95q12.27-7.83,24.51-16.23t24.57-17.33q12.39-9,24.78-18.32t25-19.15q12.61-9.79,25.29-19.85t25.65-20.39q13-10.35,26.11-20.78,13.26-10.53,26.66-21,13.73-10.71,27.62-21.31t28.07-21q14.38-10.52,29-20.68,14.91-10.34,30.1-20.19,15.52-10.07,31.38-19.47,16.23-9.63,32.86-18.45c66.78-35.38,138.44-60.08,217.67-64.35,67.18-3.62,121.73,1.54,171.38,12.74q11.8,2.66,23.26,5.76h0q11.51,3.11,22.75,6.63h0q11.76,3.66,23.34,7.74h0q11.49,4,22.92,8.43c17.25,6.63,34.52,13.84,52.2,21.51q12.83,5.55,26,11.41t26.58,11.86q13.3,5.93,27.19,12.07,13.53,6,27.71,12.07,13.72,5.9,28.16,11.89,13.89,5.75,28.52,11.56,14,5.53,28.78,11.1,14.1,5.29,29,10.59,14.13,5,29,10,14.18,4.75,29.1,9.45,14.17,4.48,29.07,8.89,14.18,4.2,29,8.33,14.14,3.94,28.94,7.8,14.13,3.69,28.88,7.3,11.17,2.73,22.72,5.42l6.05,1.39q14.43,3.3,28.71,6.26,34.32,7.14,67.64,12.51"/><path class="cls-3" d="M0,682.34c48.07,38.38,103.21,69.85,166,86.6a243.25,243.25,0,0,0,101.83,5.44c7.88-1.23,15.72-2.84,23.5-4.78q12.18-3,24.2-7.18t23.69-9.13l0,0a427.52,427.52,0,0,0,47.05-23.89q11.75-6.84,23.43-14.47t23.44-16q11.75-8.35,23.47-17.33T480.15,663q11.82-9.56,23.64-19.57T527.61,623q12-10.49,24-21.24T576,579.87l24.72-22.33q12.53-11.31,25.18-22.66T651.65,512Q664.88,500.41,678.3,489t27.2-22.72q13.95-11.42,28.16-22.43,14.51-11.24,29.29-21.93,15.16-11,30.66-21.24,15.92-10.56,32.24-20.25c69.46-41.19,144.37-69.6,227.6-73.24,69.47-3.05,125.59,5.95,177,22.67h0q11.76,3.81,23.21,8.16h0q11.43,4.33,22.66,9.13,11.84,5,23.55,10.56c15.6,7.34,31.14,15.25,46.88,23.61q13.1,6.95,26.43,14.28,13.14,7.2,26.64,14.71t27.26,15q13.68,7.5,28,15.16,14,7.47,28.64,15,14.21,7.32,29.18,14.65,14.43,7,29.67,14.08,14.58,6.73,30,13.38,14.7,6.34,30.22,12.59,14.76,5.93,30.32,11.74,14.78,5.51,30.34,10.89,14.77,5.1,30.31,10.06,14.74,4.7,30.21,9.26,14.7,4.32,30.08,8.49,14.64,4,29.93,7.79,8.6,2.15,17.4,4.24,6.18,1.5,12.35,2.92,14.88,3.45,29.61,6.49,39,8.08,76.71,13.58"/><path class="cls-3" d="M0,718.44C40.73,754,87.4,781.9,140.66,795.69c36.88,9.55,72.42,8.52,107.16-.58h0q11.28-3,22.47-7,11.77-4.26,23.43-9.68a386.43,386.43,0,0,0,45.45-25.11l0,0q11.3-7.2,22.55-15.27t22.5-16.86q11.28-8.82,22.54-18.33t22.5-19.59h0q11.28-10.08,22.6-20.7t22.69-21.64q11.41-11,22.88-22.45t23.09-23.12q11.65-11.73,23.38-23.64t23.77-24q12-12.15,24.2-24.29t24.78-24.42q12.7-12.4,25.62-24.6t26.23-24.25Q682,437.9,695.74,426.13q14-12,28.34-23.5,14.7-11.76,29.73-22.83,15.5-11.4,31.38-21.91c72.43-47.86,150.95-80.6,238.66-83.58,72-2.44,129.83,10.85,183.2,33.66q11.73,5,23.2,10.63Q1241.4,324,1252.38,330c15.89,8.57,31.63,17.86,47.49,27.71q11.91,7.38,23.94,15.17h0q12.74,8.2,25.74,16.8h0q13.11,8.59,26.61,17.5t27.52,17.92q13.88,9,28.4,18,14.27,8.88,29.25,17.79,14.6,8.67,30,17.28,14.9,8.32,30.62,16.55h0q15.1,7.86,31.07,15.6,15.27,7.38,31.42,14.57,15.33,6.84,31.53,13.46,15.39,6.28,31.59,12.34,15.36,5.75,31.52,11.25,15.33,5.24,31.41,10.21,15.24,4.74,31.2,9.23,15.16,4.27,31,8.31,6.11,1.56,12.3,3.08,9.26,2.29,18.46,4.41,15.36,3.55,30.56,6.64c29.17,5.94,57.85,10.65,85.93,14.31"/><path class="cls-3" d="M0,757.16c33.51,31,71.75,54.38,115.35,65.28,38.57,9.64,75.81,5.7,112.38-8.29q10.65-4.06,21.23-9.25a347.18,347.18,0,0,0,44.77-26.5q10.89-7.51,21.76-16t21.67-17.67q10.8-9.22,21.6-19.18h0q10.78-10,21.59-20.54T402,683.36q10.79-11.1,21.65-22.68t21.76-23.5q10.9-11.94,21.91-24.21t22.13-24.75L511.82,563q11.32-12.72,22.76-25.49t23.22-25.68q11.78-12.93,23.74-25.75,12.16-13,24.53-25.86t25.18-25.53q12.93-12.86,26.12-25.26,13.5-12.7,27.26-24.83,14.16-12.48,28.64-24.23,15-12.15,30.29-23.42h0c75.6-55.44,158-93.25,250.67-95.49,74.86-1.81,134.6,16.42,190.22,46.15Q1196.36,294,1208,301c14.9,8.94,29.61,18.65,44.36,28.95q11.92,8.32,23.94,17.15t24.14,18h0q12.65,9.54,25.6,19.42h0q13.08,10,26.58,20.17h0q13.53,10.21,27.62,20.61h0q14,10.31,28.7,20.68,14.49,10.22,29.73,20.41,14.93,10,30.67,19.81,15.3,9.57,31.49,18.94,15.58,9,32.09,17.83,15.82,8.4,32.54,16.55h0q15.95,7.74,32.77,15.2,16,7.06,32.87,13.81,16,6.4,32.8,12.46,15.93,5.75,32.65,11.17,15.84,5.13,32.42,10,15.74,4.56,32.15,8.81l7.59,1.94q12.17,3.09,24.25,5.86,15.87,3.64,31.57,6.76c32.43,6.46,64.29,11.3,95.4,14.78"/><path class="cls-3" d="M0,798.3C26.4,823,56.26,841,90.05,849.19c40.37,9.61,79.46,1.78,118.09-18.44A314.59,314.59,0,0,0,249,804.9q10.68-7.87,21.34-16.82,10.5-8.76,21-18.48t20.83-20q10.35-10.34,20.73-21.4t20.69-22.61q10.32-11.53,20.69-23.62T395,657.46q10.38-12.4,20.82-25.16t21-25.74q10.51-13,21.15-26.17T479.3,553.9q10.8-13.33,21.76-26.71t22.17-26.82q11.24-13.49,22.68-26.85,11.6-13.54,23.39-26.87t24.05-26.59q12.36-13.38,25-26.33,12.9-13.25,26.06-25.93,13.54-13.07,27.39-25.41,14.32-12.79,29-24.71c79-64.09,165.76-107.76,263.86-109,77.33-1.28,138.72,22.16,196.44,59.1,15.84,10.14,31.41,21.29,47,33.24q11.12,8.53,22.23,17.59,11.64,9.45,23.4,19.38h0q11.92,10,24,20.48h0L1303,380.28q13,11.18,26.41,22.59h0q13.5,11.44,27.57,23h0q14.07,11.57,28.79,23.13t30,22.84Q1431,483.05,1447,494.08q15.64,10.76,32.18,21.26,16,10.17,33,20,16.35,9.46,33.63,18.57,16.53,8.67,34,17,16.64,7.88,34.18,15.34,16.63,7.06,34.13,13.71,16.59,6.29,34,12.16,16.46,5.55,33.7,10.68,16.32,4.86,33.37,9.33l3.32.86q14.91,3.87,29.68,7.22,16.39,3.75,32.63,6.89c35.82,7,71,11.85,105.19,15"/><path class="cls-3" d="M0,841.54c19.31,16.92,40.81,28.93,64.75,34.4,48.81,11.14,96.06-7.6,143.39-45.19q9.8-7.79,19.59-16.6,10-9,20.09-19h0q10-9.93,20-20.73t19.87-22.18q9.87-11.36,19.79-23.41t19.76-24.46Q337,691.93,347,679t19.8-26q9.87-13.12,19.86-26.58t20-27l20.19-27.33q10.13-13.73,20.41-27.54T468,516.86q10.47-13.89,21.12-27.71t21.59-27.68q11-13.92,22.23-27.63t22.88-27.38q11.75-13.77,23.73-27.13,12.25-13.65,24.76-26.78,12.87-13.5,26-26.34,13.62-13.29,27.57-25.76C740.27,226.81,831.34,176.37,935,175.84c90.22-.46,159,37,226,91.93q11.72,9.6,23.39,19.87,11.26,9.89,22.59,20.33,11.63,10.68,23.38,21.84h0q11.88,11.25,24,22.88,12.4,11.88,25.17,24.08,12.92,12.32,26.27,24.82t27.48,25.24q14.06,12.69,28.79,25.35t30.15,25.08q15.32,12.35,31.49,24.46,15.92,11.88,32.75,23.47,16.43,11.28,33.82,22.16h0q16.85,10.51,34.66,20.57,17.13,9.65,35.24,18.78,17.28,8.73,35.52,16.92,17.32,7.77,35.57,15h0q17.28,6.86,35.41,13.2,17.15,6,35.11,11.46,16.8,5.12,34.34,9.76l.38.1q17.21,4.55,34.24,8.38t33.79,7a1013.11,1013.11,0,0,0,115.36,15"/></g></svg>