<?xml version="1.0" encoding="UTF-8"?>
<svg fill="none" viewBox="0 0 24 29" xmlns="http://www.w3.org/2000/svg">
<path d="m12 18.316c2.8457 0 5.1257-2.0453 5.1257-4.579l0.0172-9.1578c0-2.5337-2.2972-4.579-5.1429-4.579-2.8457 0-5.1429 2.0453-5.1429 4.579v9.1578c0 2.5337 2.2972 4.579 5.1429 4.579zm-2.0571-13.889c0-1.0074 0.92574-1.8316 2.0571-1.8316s2.0571 0.82421 2.0571 1.8316l-0.0171 9.4632c0 1.0073-0.9086 1.8316-2.04 1.8316s-2.0571-0.8243-2.0571-1.8316v-9.4632zm11.143 9.3105c0 4.579-4.3543 7.7843-9.0857 7.7843-4.7314 0-9.0857-3.2053-9.0857-7.7843h-2.9143c0 5.2048 4.6629 9.509 10.286 10.257v5.0063h3.4286v-5.0063c5.6228-0.7326 10.286-5.0369 10.286-10.257h-2.9143z" fill="#3CD2F9"/>
</svg>
