<?xml version="1.0" encoding="UTF-8"?>
<svg fill="none" viewBox="0 0 18 16" xmlns="http://www.w3.org/2000/svg">
<path d="m12.053 7.783c0-0.93288-0.736-1.6961-1.6356-1.6961-0.89955 0-1.6356 0.76326-1.6356 1.6961s0.736 1.6962 1.6356 1.6962c0.8996 0 1.6356-0.76327 1.6356-1.6962zm-1.6356-7.6326c-4.0644 0-7.36 3.4177-7.36 7.6326h-2.4534l3.2711 3.3923 3.2711-3.3923h-2.4534c0-3.282 2.5597-5.9365 5.7245-5.9365 3.1648 0 5.7245 2.6545 5.7245 5.9365 0 3.2821-2.5597 5.9366-5.7245 5.9366-1.2348 0-2.3797-0.4156-3.3202-1.1025l-1.1612 1.2212c1.243 0.9837 2.7968 1.5774 4.4814 1.5774 4.0644 0 7.3601-3.4177 7.3601-7.6327 0-4.2149-3.2957-7.6326-7.3601-7.6326z" fill="#F38181"/>
</svg>
