<svg id="Calque_1" data-name="Calque 1" xmlns="http://www.w3.org/2000/svg" xmlns:xlink="http://www.w3.org/1999/xlink" viewBox="0 0 1200 300"><defs><style>.cls-1{fill:none;}.cls-2{clip-path:url(#clip-path);}.cls-3{fill:url(#Nouvelle_nuance_de_dégradé_3);}.cls-4{clip-path:url(#clip-path-2);}.cls-5{fill:url(#Nouvelle_nuance_de_dégradé_3-2);}.cls-6{fill:#676771;}.cls-7{clip-path:url(#clip-path-3);}.cls-8{fill:url(#linear-gradient);}</style><clipPath id="clip-path"><path class="cls-1" d="M155,64.3V246.1a8.22,8.22,0,1,1-16.44,0V64.3a8.22,8.22,0,1,1,16.44,0ZM122.72,86.22a8.25,8.25,0,0,0-8.22,8.22V216a8.22,8.22,0,0,0,16.44,0V94.44A8.25,8.25,0,0,0,122.72,86.22ZM194.91,78a8.25,8.25,0,0,0-8.22,8.22v138a8.23,8.23,0,0,0,16.45,0v-138A8.25,8.25,0,0,0,194.91,78ZM98.66,117.64a8.25,8.25,0,0,0-8.22,8.22v58.69a8.22,8.22,0,1,0,16.44,0V125.86A8.25,8.25,0,0,0,98.66,117.64ZM219,115.7a8.25,8.25,0,0,0-8.22,8.22v62.56a8.22,8.22,0,0,0,16.44,0V123.92A8.25,8.25,0,0,0,219,115.7ZM170.85,110a8.25,8.25,0,0,0-8.22,8.23v74a8.22,8.22,0,0,0,16.44,0v-74A8.25,8.25,0,0,0,170.85,110ZM74.59,134.81A8.25,8.25,0,0,0,66.37,143v24.35a8.22,8.22,0,1,0,16.44,0V143A8.25,8.25,0,0,0,74.59,134.81Zm168.45.76a8.25,8.25,0,0,0-8.22,8.22v22.83a8.22,8.22,0,1,0,16.44,0V143.79A8.24,8.24,0,0,0,243,135.57Z"/></clipPath><linearGradient id="Nouvelle_nuance_de_dégradé_3" x1="82.88" y1="77.17" x2="238.96" y2="233.25" gradientUnits="userSpaceOnUse"><stop offset="0" stop-color="#3eb8ba"/><stop offset="0.5" stop-color="#3c86c7"/><stop offset="1" stop-color="#524d9a"/></linearGradient><clipPath id="clip-path-2"><path class="cls-1" d="M158.82,271.38a121,121,0,1,1,121-121A121.14,121.14,0,0,1,158.82,271.38Zm0-240.07A119.07,119.07,0,1,0,277.88,150.38,119.21,119.21,0,0,0,158.82,31.31Z"/></clipPath><linearGradient id="Nouvelle_nuance_de_dégradé_3-2" x1="290.93" y1="150.38" x2="26.7" y2="150.38" gradientTransform="translate(304.97 -12.33) rotate(88.5)" xlink:href="#Nouvelle_nuance_de_dégradé_3"/><clipPath id="clip-path-3"><path class="cls-1" d="M479.25,67.45l-52.83,114h-12.5L395.67,139l-18.34,42.5H364.92L312,67.45h17.25l41.83,93.33,16.17-38L362,67.45h16.17l17.5,40.42,17.41-40.42h16.25L404,122.78l16.25,37.92,41.84-93.25Zm103.84,0v114h-16V128.7h-56v52.75h-16v-114h16V114h56V67.45Zm48.5,0v114h-16v-114Zm34.58,91c8.42,5,18.25,9.5,30.92,9.5,17.83,0,27.17-6.5,27.17-17.84,0-12.16-16-17.58-26.34-21.33-14.08-5.66-33.83-10.5-33.83-32.17,0-17.83,16.08-30.74,40.5-30.74,15.58,0,25.17,4.41,32.08,8.83l-6.5,13.83a44.34,44.34,0,0,0-25.58-7.66c-12.25,0-24,4.5-24,15.74,0,10.34,12,12.84,21.33,16.59,17.84,6.59,38.84,12.5,38.84,36.91,0,20.67-16.5,32.92-43.67,32.92-17.5,0-29-5.33-36.67-10.33ZM841.59,102.2c0,25.58-14.33,35.66-42.16,35.66H782.59v43.59h-16v-114h33.76C830.93,67.45,841.59,83.45,841.59,102.2Zm-16.5,0C825.09,89,817,82,800.35,82H782.59v41.58h18.17C819.6,123.61,825.09,115.12,825.09,102.2Zm113.17,64.25v15h-72.5v-114H937V82H881.76V114h48.42V128.2H881.76v38.25Zm121.59,15h-16.58l-12.67-32.08H980.1l-12.67,32.08H950.85L997.69,66.61H1013ZM1025,135.12l-19.67-49.67L985.6,135.12Zm117.24,46.33-40.41-54-8.84,9.83v44.17h-16v-114h16v49.67l44.83-49.67h20.76l-46.25,49.75,49.83,64.25Z"/></clipPath><linearGradient id="linear-gradient" x1="312" y1="124.45" x2="1162.18" y2="124.45" xlink:href="#Nouvelle_nuance_de_dégradé_3"/></defs><g class="cls-2"><path class="cls-3" d="M271.28,155.21A110.36,110.36,0,1,1,160.92,44.84,110.36,110.36,0,0,1,271.28,155.21Z"/></g><g class="cls-4"><circle class="cls-5" cx="158.82" cy="150.38" r="132.12" transform="translate(4.32 305.19) rotate(-88.5)"/></g><path class="cls-6" d="M670.74,244.16l-10.32-26h2.67L672,241.3l8.9-23.19h2.66l-10.32,26Z"/><path class="cls-6" d="M709.77,231.13c0,8-5,13.41-12.25,13.41s-12.22-5.39-12.22-13.41,5-13.39,12.22-13.39S709.77,223.11,709.77,231.13Zm-2.55,0c0-5.14-2.57-11.1-9.7-11.1s-9.67,6-9.67,11.1,2.67,11.12,9.67,11.12S707.22,236.28,707.22,231.13Z"/><path class="cls-6" d="M718.23,218.11v26h-2.46v-26Z"/><path class="cls-6" d="M743.33,220.13,741.79,222a9,9,0,0,0-5.68-1.92c-6.13,0-9.43,5.75-9.43,11.2a12.29,12.29,0,0,0,2.33,7.63,8.88,8.88,0,0,0,7.39,3.39,9.41,9.41,0,0,0,6.72-2.58l1.68,1.73a11.69,11.69,0,0,1-8.4,3.14c-7.37,0-12.27-5.35-12.27-13.29,0-7.7,5.11-13.51,12-13.51A11.44,11.44,0,0,1,743.33,220.13Z"/><path class="cls-6" d="M764.78,241.88v2.28H749.46v-26h15v2.28H751.9v8.86h11.22v2.25H751.9v10.38Z"/><path class="cls-6" d="M802.05,237.17c0,3.49-1.57,7-9.2,7h-9.58v-26h7.86c4.88,0,8.82,1.92,8.82,6.64a6.44,6.44,0,0,1-3.18,5.22C800.85,231.57,802.05,234.28,802.05,237.17Zm-16.36-7.87h6.57c2.84,0,5.24-1.42,5.24-4.55,0-2.95-2.5-4.38-6.1-4.38h-5.71Zm13.92,7.85c0-3.81-2.3-5.65-7.75-5.65h-6.17v10.39h7.2C796.71,241.89,799.61,241,799.61,237.15Z"/><path class="cls-6" d="M810.51,218.11v26h-2.46v-26Z"/><path class="cls-6" d="M841,231.13c0,8-5,13.41-12.25,13.41s-12.23-5.39-12.23-13.41,5-13.39,12.23-13.39S841,223.11,841,231.13Zm-2.56,0c0-5.14-2.56-11.1-9.69-11.1s-9.67,6-9.67,11.1,2.66,11.12,9.67,11.12S838.42,236.28,838.42,231.13Z"/><path class="cls-6" d="M874.23,244.16h-2.51l-3.43-22.67-7.77,22.67h-2.33l-7.77-22.67L847,244.16h-2.51l4.18-26h2.91L859.36,241l7.77-22.85H870Z"/><path class="cls-6" d="M894.38,241.88v2.28H879.07v-26h15v2.28H881.51v8.86h11.22v2.25H881.51v10.38Z"/><path class="cls-6" d="M896.73,218.11h19.14v2.28h-8.34v23.77h-2.46V220.39h-8.34Z"/><path class="cls-6" d="M934.32,244.16l-7.58-10.91h-4.82v10.91h-2.44v-26h7.2c7.54,0,9.7,3.73,9.7,7.23,0,4.48-2.5,7.1-7,7.74l7.82,11.08ZM921.92,231h5.14c4.75,0,6.86-1.83,6.86-5.66,0-2.49-1.6-5-7.08-5h-4.92Z"/><path class="cls-6" d="M945.31,218.11v26h-2.46v-26Z"/><path class="cls-6" d="M970.41,220.13,968.87,222a9,9,0,0,0-5.68-1.92c-6.13,0-9.42,5.75-9.42,11.2a12.29,12.29,0,0,0,2.32,7.63,8.88,8.88,0,0,0,7.39,3.39,9.41,9.41,0,0,0,6.72-2.58l1.68,1.73a11.67,11.67,0,0,1-8.4,3.14c-7.37,0-12.27-5.35-12.27-13.29,0-7.7,5.1-13.51,12-13.51A11.41,11.41,0,0,1,970.41,220.13Z"/><path class="cls-6" d="M1006.31,237.31c0,4.43-3.56,7.23-9.73,7.23a14.67,14.67,0,0,1-7.93-2.09l.88-2.21a14.24,14.24,0,0,0,7.05,2c4.51,0,7.29-1.78,7.29-4.93,0-3.38-3.9-5-6.8-5.89-3.5-1.13-7.62-2.36-7.62-6.94,0-4,3.62-6.74,8.94-6.74a13,13,0,0,1,6.85,1.72l-1,2.13a11.35,11.35,0,0,0-5.85-1.56c-3.62,0-6.5,1.73-6.5,4.42s2.78,3.73,5.66,4.62C1001.32,230.25,1006.31,232.22,1006.31,237.31Z"/><path class="cls-6" d="M1035.46,231.13c0,8-5,13.41-12.25,13.41S1011,239.15,1011,231.13s5-13.39,12.23-13.39S1035.46,223.11,1035.46,231.13Zm-2.56,0c0-5.14-2.57-11.1-9.69-11.1s-9.68,6-9.68,11.1,2.67,11.12,9.68,11.12S1032.9,236.28,1032.9,231.13Z"/><path class="cls-6" d="M1055.09,241.88v2.28h-14v-26h2.44v23.77Z"/><path class="cls-6" d="M1067.37,242.25c5.32,0,7.13-4.28,7.13-8.17v-16h2.44v15.75c0,2.49-.79,10.68-9.57,10.68s-9.58-8.19-9.58-10.68V218.11h2.44v16C1060.23,238,1062,242.25,1067.37,242.25Z"/><path class="cls-6" d="M1080.46,218.11h19.14v2.28h-8.35v23.77h-2.45V220.39h-8.34Z"/><path class="cls-6" d="M1106.06,218.11v26h-2.46v-26Z"/><path class="cls-6" d="M1136.53,231.13c0,8-5,13.41-12.25,13.41s-12.23-5.39-12.23-13.41,5-13.39,12.23-13.39S1136.53,223.11,1136.53,231.13Zm-2.55,0c0-5.14-2.57-11.1-9.7-11.1s-9.67,6-9.67,11.1,2.67,11.12,9.67,11.12S1134,236.28,1134,231.13Z"/><path class="cls-6" d="M1159.75,240.06V218.11h2.43v26h-2.38l-15.22-22v22h-2.43v-26h2.41Z"/><g class="cls-7"><rect class="cls-8" x="312" y="44.23" width="850.18" height="160.44"/></g></svg>